<svg width="80" height="80" viewBox="0 0 80 80" fill="none" xmlns="http://www.w3.org/2000/svg">
<path d="M80 0H0V80H80V0Z" fill="#F7DF1E"/>
<path d="M53.7396 62.5004C55.3511 65.1315 57.4476 67.0655 61.1555 67.0655C64.2704 67.0655 66.2603 65.5087 66.2603 63.3575C66.2603 60.7798 64.2158 59.8667 60.7873 58.3671L58.9079 57.5607C53.4831 55.2496 49.8793 52.3544 49.8793 46.2337C49.8793 40.5956 54.1752 36.3036 60.8888 36.3036C65.6685 36.3036 69.1047 37.9671 71.5809 42.3226L65.7269 46.0814C64.438 43.7702 63.0476 42.8598 60.8888 42.8598C58.6869 42.8598 57.2914 44.2566 57.2914 46.0814C57.2914 48.3366 58.6882 49.2496 61.9136 50.6464L63.793 51.4515C70.1803 54.1906 73.7866 56.9829 73.7866 63.261C73.7866 70.0293 68.4698 73.7372 61.3295 73.7372C54.3479 73.7372 49.8374 70.4102 47.6304 66.0496L53.7396 62.5004ZM27.1834 63.1518C28.3644 65.2471 29.4387 67.0185 32.0215 67.0185C34.4914 67.0185 36.0495 66.0521 36.0495 62.2947V36.7328H43.5669V62.3963C43.5669 70.1804 39.0031 73.7233 32.3415 73.7233C26.3225 73.7233 22.8368 70.6083 21.0641 66.8566L27.1834 63.1518Z" fill="black"/>
</svg>
