<svg width="206" height="36" viewBox="0 0 206 36" fill="none" xmlns="http://www.w3.org/2000/svg">
<path d="M14.261 19.3477C13.7784 20.3114 12.4013 20.3114 11.9188 19.3477L10.7647 17.0429C10.6738 16.8613 10.6264 16.6611 10.6264 16.4581C10.6264 16.2552 10.6738 16.055 10.7647 15.8734L11.9188 13.5684C12.4013 12.6046 13.7784 12.6046 14.261 13.5684L15.4151 15.8734C15.506 16.055 15.5534 16.2552 15.5534 16.4581C15.5534 16.6611 15.506 16.8613 15.4151 17.0429L14.261 19.3477ZM14.261 32.4198C13.7784 33.3833 12.4013 33.3833 11.9188 32.4198L10.7647 30.1147C10.6738 29.9332 10.6264 29.733 10.6264 29.53C10.6264 29.327 10.6738 29.1268 10.7647 28.9453L11.9188 26.6402C12.4013 25.6765 13.7784 25.6765 14.261 26.6402L15.4151 28.9453C15.506 29.1268 15.5534 29.327 15.5534 29.53C15.5534 29.733 15.506 29.9332 15.4151 30.1147L14.261 32.4198Z" fill="#1D4AFF"/>
<path d="M-0.00012207 27.455C-0.00012207 26.2902 1.41021 25.7064 2.23498 26.5303L8.23653 32.5236C9.06156 33.3474 8.47729 34.7556 7.31082 34.7556H1.30927C0.962083 34.7556 0.629114 34.6179 0.383571 34.3728C0.138028 34.1277 1.44811e-05 33.7952 -0.00012207 33.4485V27.455ZM-0.00012207 21.1422C-0.00012207 21.4893 0.137898 21.8218 0.383553 22.0668L12.7065 34.3727C12.952 34.6179 13.285 34.7557 13.6322 34.7558H20.4008C21.5673 34.7558 22.1516 33.3474 21.3265 32.5236L2.23523 13.4585C1.41021 12.6348 -0.00012207 13.2183 -0.00012207 14.3832V21.1422ZM-0.00012207 8.07056C-0.00012207 8.41719 0.137898 8.74993 0.383553 8.99499L25.7962 34.3727C26.0418 34.618 26.3749 34.7558 26.7222 34.7558H33.4906C34.6571 34.7558 35.2416 33.3474 34.4165 32.5236L2.23523 0.386877C1.41021 -0.437009 -0.00012207 0.146448 -0.00012207 1.31131V8.07056ZM13.0899 8.07056C13.0899 8.41719 13.2279 8.74993 13.4736 8.99499L37.0348 32.5236C37.8596 33.3474 39.2699 32.764 39.2699 31.5989V24.8399C39.2699 24.493 39.1319 24.1604 38.8862 23.9152L15.325 0.38662C14.5002 -0.437009 13.0899 0.146448 13.0899 1.31131V8.07056ZM28.415 0.386877C27.5902 -0.437009 26.1799 0.146448 26.1799 1.31131V8.07056C26.1799 8.41719 26.3179 8.74993 26.5636 8.99499L37.0346 19.4517C37.8596 20.2756 39.2697 19.6921 39.2697 18.527V11.768C39.2697 11.4212 39.1318 11.0886 38.8862 10.8433L28.415 0.386877Z" fill="#F9BD2B"/>
<path d="M55.6817 27.6181L43.3567 15.3105C42.5317 14.4866 41.1213 15.0701 41.1213 16.2349V33.4512C41.1213 33.798 41.2593 34.1305 41.5048 34.3758C41.7504 34.621 42.0835 34.7587 42.4307 34.7587H61.5223C61.8696 34.7587 62.2026 34.621 62.4482 34.3758C62.6937 34.1305 62.8317 33.798 62.8317 33.4512V31.8834C62.8317 31.1611 62.243 30.5843 61.5262 30.4912C59.3139 30.2036 57.2592 29.1935 55.6817 27.6181ZM47.4043 30.5758C46.8489 30.5755 46.3164 30.3551 45.9237 29.9629C45.531 29.5707 45.3103 29.0388 45.3101 28.4842C45.3103 27.9296 45.531 27.3977 45.9237 27.0055C46.3164 26.6133 46.8489 26.3929 47.4043 26.3926C47.9598 26.3928 48.4924 26.6132 48.8852 27.0054C49.2779 27.3976 49.4986 27.9295 49.4988 28.4842C49.4986 29.0389 49.2779 29.5708 48.8852 29.963C48.4924 30.3552 47.9598 30.5756 47.4043 30.5758Z" fill="white"/>
<path d="M-0.00012207 33.4512C-0.00012207 33.7979 0.137831 34.1305 0.383389 34.3757C0.628946 34.621 0.961994 34.7587 1.30927 34.7587H7.31082C8.47729 34.7587 9.06156 33.3504 8.23653 32.5265L2.23524 26.5332C1.41021 25.7096 -0.00012207 26.2931 -0.00012207 27.4579V33.4512ZM13.0899 11.2294L2.23498 0.389786C1.41021 -0.4341 -0.00012207 0.149357 -0.00012207 1.31421V8.07347C-0.00012207 8.4201 0.137898 8.75284 0.383553 8.9979L13.0899 21.6869V11.2294ZM2.23498 13.4614C1.41021 12.6378 -0.00012207 13.2212 -0.00012207 14.3861V21.1453C-0.00012207 21.492 0.137898 21.8247 0.383553 22.0698L13.0899 34.7587V24.3012L2.23498 13.4614Z" fill="#1D4AFF"/>
<path d="M26.1799 11.7709C26.1799 11.5992 26.146 11.4291 26.0802 11.2705C26.0144 11.1118 25.9179 10.9677 25.7962 10.8463L15.3252 0.389801C14.5002 -0.434084 13.0899 0.149373 13.0899 1.31423V8.07349C13.0899 8.42012 13.2279 8.75286 13.4736 8.99792L26.1799 21.6869V11.7709ZM13.0899 34.7587L20.4008 34.7587C21.5673 34.7587 22.1516 33.3504 21.3265 32.5265L13.0899 24.3012V34.7587ZM13.0899 11.2294V21.1453C13.0899 21.492 13.2279 21.8247 13.4736 22.0698L26.1799 34.7587V24.8428C26.1799 24.6711 26.146 24.501 26.0802 24.3423C26.0144 24.1837 25.9179 24.0395 25.7962 23.9181L13.0899 11.2294Z" fill="#F54E00"/>
<path d="M78.1048 29.5395H83.4834V20.6321H87.9773C92.9136 20.6321 96.0798 17.7084 96.0798 13.1868C96.0798 8.66517 92.9139 5.74146 87.9773 5.74146H78.1048V29.5395ZM83.4834 16.0426V10.3309H87.4327C89.4752 10.3309 90.7009 11.4187 90.7009 13.1865C90.7009 14.9546 89.4752 16.0423 87.4327 16.0423L83.4834 16.0426ZM105.811 29.8113C111.054 29.8113 114.867 26.0717 114.867 20.972C114.867 15.8726 111.054 12.133 105.811 12.133C100.5 12.133 96.7555 15.8726 96.7555 20.972C96.7555 26.0717 100.5 29.8113 105.811 29.8113ZM101.726 20.972C101.726 18.2522 103.36 16.3825 105.811 16.3825C108.228 16.3825 109.863 18.2522 109.863 20.972C109.863 23.6918 108.228 25.5618 105.811 25.5618C103.36 25.5618 101.726 23.6918 101.726 20.972ZM123.475 29.8113C127.492 29.8113 130.216 27.2954 130.216 24.3378C130.216 17.4026 120.99 19.6462 120.99 16.9264C120.99 16.1786 121.772 15.7027 122.896 15.7027C124.054 15.7027 125.45 16.4165 125.892 17.9804L129.909 16.3144C129.126 13.833 126.232 12.133 122.726 12.133C118.947 12.133 116.598 14.3766 116.598 17.0624C116.598 23.5558 125.688 21.754 125.688 24.4399C125.688 25.3918 124.803 26.0377 123.475 26.0377C121.568 26.0377 120.241 24.7119 119.832 23.114L115.815 24.6777C116.7 27.2615 119.288 29.8113 123.475 29.8113ZM143.155 29.3695L142.815 25.0519C142.236 25.3579 141.487 25.4597 140.875 25.4597C139.649 25.4597 138.832 24.5759 138.832 23.0459V16.5525H142.986V12.4048H138.832V7.44143H133.828V12.4048H131.104V16.5525H133.828V23.6918C133.828 27.8395 136.653 29.8113 140.364 29.8113C141.385 29.8113 142.338 29.6416 143.155 29.3695ZM160.605 5.74146V14.9886H151.14V5.74172H145.761V29.5393H151.14V19.5783H160.605V29.5393H166.018V5.74146H160.605ZM177.957 29.8113C183.199 29.8113 187.012 26.0717 187.012 20.972C187.012 15.8726 183.2 12.133 177.957 12.133C172.646 12.133 168.901 15.8726 168.901 20.972C168.901 26.0717 172.646 29.8113 177.957 29.8113ZM173.872 20.972C173.872 18.2522 175.506 16.3825 177.957 16.3825C180.374 16.3825 182.008 18.2522 182.008 20.972C182.008 23.6918 180.374 25.5618 177.957 25.5618C175.506 25.5618 173.872 23.6918 173.872 20.972ZM196.672 28.9954C198.545 28.9954 200.213 28.3495 201.098 27.2275V28.8594C201.098 30.7633 199.566 32.0891 197.217 32.0891C195.548 32.0891 194.085 31.2732 193.846 29.8792L189.285 30.5933C189.897 33.823 193.2 35.9989 197.217 35.9989C202.494 35.9989 206 32.905 206 28.3155V12.4048H201.064V13.8667C200.145 12.8129 198.578 12.133 196.57 12.133C191.804 12.133 188.808 15.3967 188.808 20.5642C188.808 25.7317 191.804 28.9954 196.672 28.9954ZM193.676 20.5642C193.676 18.0144 195.174 16.3825 197.489 16.3825C199.838 16.3825 201.336 18.0144 201.336 20.5642C201.336 23.114 199.838 24.7459 197.489 24.7459C195.174 24.7459 193.676 23.114 193.676 20.5642Z" fill="white"/>
</svg>
