<svg width="48" height="48" viewBox="0 0 48 48" fill="none" xmlns="http://www.w3.org/2000/svg">
<rect x="0.5" y="0.5" width="47" height="47" rx="23.5" fill="white"/>
<rect x="0.5" y="0.5" width="47" height="47" rx="23.5" stroke="#BBCBB2"/>
<path d="M20.088 37.504C17.208 37.504 14.928 36.628 13.248 34.876C11.568 33.1 10.728 30.544 10.728 27.208V21.592C10.728 18.352 11.568 15.832 13.248 14.032C14.928 12.208 17.208 11.296 20.088 11.296C23.088 11.296 25.368 12.136 26.928 13.816C28.512 15.496 29.304 17.776 29.304 20.656V21.304H24.552V20.656C24.552 19.864 24.42 19.084 24.156 18.316C23.892 17.524 23.436 16.876 22.788 16.372C22.14 15.868 21.24 15.616 20.088 15.616C19.032 15.616 18.156 15.88 17.46 16.408C16.788 16.912 16.284 17.596 15.948 18.46C15.636 19.3 15.48 20.224 15.48 21.232V27.568C15.48 29.2 15.828 30.544 16.524 31.6C17.22 32.656 18.408 33.184 20.088 33.184C21.312 33.184 22.248 32.944 22.896 32.464C23.544 31.984 23.976 31.36 24.192 30.592C24.432 29.824 24.552 29.008 24.552 28.144V27.496H29.304V28.144C29.304 31.12 28.512 33.424 26.928 35.056C25.368 36.688 23.088 37.504 20.088 37.504ZM36.659 37.504C35.723 37.504 34.919 37.18 34.247 36.532C33.575 35.86 33.239 35.044 33.239 34.084C33.239 33.124 33.575 32.32 34.247 31.672C34.919 31 35.723 30.664 36.659 30.664C37.595 30.664 38.399 31 39.071 31.672C39.743 32.32 40.079 33.124 40.079 34.084C40.079 35.044 39.743 35.86 39.071 36.532C38.399 37.18 37.595 37.504 36.659 37.504Z" fill="#135707"/>
</svg>
