<svg width="134" height="36" viewBox="0 0 134 36" fill="none" xmlns="http://www.w3.org/2000/svg">
<path d="M9.08101 30.663C7.48996 29.1762 7.02549 26.0525 7.68835 23.7895C8.83775 25.2162 10.4303 25.6684 12.0799 25.9232C14.6266 26.3171 17.1276 26.1698 19.4932 24.98C19.7639 24.844 20.014 24.6625 20.3097 24.4793C20.5317 25.1374 20.5894 25.8019 20.5119 26.4784C20.3234 28.1257 19.5214 29.3983 18.2458 30.3628C17.7357 30.7487 17.196 31.0936 16.6692 31.4575C15.0507 32.5753 14.6129 33.8864 15.221 35.7937C15.2355 35.8402 15.2484 35.8866 15.2811 36C14.4548 35.622 13.8512 35.0716 13.3913 34.348C12.9055 33.584 12.6744 32.7391 12.6622 31.8251C12.6562 31.3801 12.6562 30.9312 12.5976 30.4927C12.4547 29.4235 11.9636 28.9447 11.0385 28.917C10.089 28.8889 9.33796 29.4887 9.1388 30.4337C9.12359 30.506 9.10154 30.5777 9.07949 30.6619L9.08101 30.663Z" fill="white"/>
<path d="M0 23.4122C0 23.4122 4.7114 21.0664 9.43598 21.0664L12.9982 9.79758C13.1315 9.25261 13.5209 8.88225 13.9605 8.88225C14.4001 8.88225 14.7895 9.25261 14.9229 9.79758L18.485 21.0664C24.0805 21.0664 27.9212 23.4122 27.9212 23.4122C27.9212 23.4122 19.9183 1.12788 19.9027 1.08317C19.673 0.424332 19.2852 0 18.7625 0H9.15937C8.63661 0 8.26453 0.424332 8.01919 1.08317C8.0019 1.12705 0 23.4122 0 23.4122Z" fill="white"/>
<path d="M49.6737 16.2442C49.6737 18.2188 47.2707 19.3982 43.9436 19.3982C41.778 19.3982 41.0124 18.8496 41.0124 17.6977C41.0124 16.491 41.9629 15.9151 44.1282 15.9151C46.0825 15.9151 47.7458 15.9425 49.6737 16.1893V16.2442ZM49.7001 13.8032C48.5119 13.529 46.7161 13.3644 44.5772 13.3644C38.3452 13.3644 35.4143 14.8729 35.4143 18.3834C35.4143 22.0311 37.4211 23.4299 42.0686 23.4299C46.0032 23.4299 48.67 22.4151 49.6473 19.9193H49.8055C49.779 20.5227 49.7526 21.126 49.7526 21.5923C49.7526 22.8813 49.9639 22.991 50.9937 22.991H55.8525C55.5884 22.2231 55.4299 20.0564 55.4299 18.1914C55.4299 16.1893 55.5091 14.6809 55.5091 12.6513C55.5091 8.50997 53.0801 5.87704 45.4749 5.87704C42.2006 5.87704 38.5565 6.453 35.7841 7.30321C36.0479 8.42767 36.4177 10.7041 36.6026 12.1851C39.0056 11.0332 42.412 10.5395 45.0527 10.5395C48.6964 10.5395 49.7001 11.3897 49.7001 13.1176V13.8032Z" fill="white"/>
<path d="M63.0315 17.3961C62.3715 17.4783 61.4735 17.4783 60.5493 17.4783C59.5723 17.4783 58.6746 17.4509 58.0671 17.3686C58.0671 17.5881 58.0407 17.8349 58.0407 18.0543C58.0407 21.4826 60.2323 23.4846 67.9432 23.4846C75.2046 23.4846 77.5547 21.51 77.5547 18.0269C77.5547 14.7357 75.997 13.1176 69.105 12.761C63.7444 12.5142 63.2693 11.9108 63.2693 11.2252C63.2693 10.4298 63.9557 10.0184 67.547 10.0184C71.2703 10.0184 72.2737 10.5395 72.2737 11.6366V11.8834C72.8016 11.856 73.7525 11.8286 74.7295 11.8286C75.6536 11.8286 76.657 11.856 77.2381 11.9108C77.2381 11.664 77.2645 11.4446 77.2645 11.2526C77.2645 7.22092 73.9899 5.90447 67.6526 5.90447C60.5229 5.90447 58.1199 7.68719 58.1199 11.1703C58.1199 14.2969 60.0478 16.2442 66.8869 16.5459C71.9303 16.7104 72.485 17.2864 72.485 18.0817C72.485 18.9319 71.6661 19.3159 68.1281 19.3159C64.0613 19.3159 63.0315 18.7399 63.0315 17.5606V17.3961Z" fill="white"/>
<path d="M86.2703 2.94243C84.3428 4.78001 80.8836 6.61756 78.9561 7.11122C78.9825 8.12599 78.9825 9.99097 78.9825 11.0057L80.7515 11.0332C80.7251 12.9804 80.6987 15.3391 80.6987 16.9024C80.6987 20.5501 82.5734 23.2927 88.4092 23.2927C90.865 23.2927 92.5023 23.0184 94.5355 22.5796C94.3242 21.2357 94.0865 19.1787 94.0072 17.6155C92.7925 18.0269 91.2612 18.2463 89.5711 18.2463C87.2209 18.2463 86.2703 17.5881 86.2703 15.6956C86.2703 14.0501 86.2703 12.5142 86.2968 11.088C89.3073 11.1155 92.3174 11.1703 94.0865 11.2252C94.0601 9.79899 94.1129 7.74202 94.1921 6.37071C91.6307 6.42557 88.7526 6.453 86.376 6.453C86.4024 5.24624 86.4288 4.09435 86.4553 2.94243H86.2703Z" fill="white"/>
<path d="M102.042 10.183C102.068 8.75678 102.095 7.55006 102.121 6.3707H96.8131C96.8924 8.72939 96.8924 11.1429 96.8924 14.6809C96.8924 18.2188 96.866 20.6598 96.8131 22.991H102.887C102.781 21.3454 102.755 18.5754 102.755 16.2167C102.755 12.4868 104.233 11.4171 107.587 11.4171C109.145 11.4171 110.254 11.6091 111.231 11.9657C111.257 10.5669 111.522 7.85174 111.68 6.64499C110.676 6.34331 109.567 6.15132 108.221 6.15132C105.342 6.12389 103.23 7.33064 102.253 10.2104L102.042 10.183Z" fill="white"/>
<path d="M128.481 14.5711C128.481 17.5606 126.369 18.9594 123.042 18.9594C119.741 18.9594 117.629 17.6429 117.629 14.5711C117.629 11.4994 119.767 10.3475 123.042 10.3475C126.342 10.3475 128.481 11.5817 128.481 14.5711ZM134 14.434C134 8.48253 129.458 5.82221 123.042 5.82221C116.599 5.82221 112.215 8.48253 112.215 14.434C112.215 20.3581 116.308 23.5397 123.015 23.5397C129.775 23.5397 134 20.3581 134 14.434Z" fill="white"/>
</svg>
