<svg width="81" height="80" viewBox="0 0 81 80" fill="none" xmlns="http://www.w3.org/2000/svg">
<path d="M0.595306 0H67.7953C71.1901 0 74.4458 1.34857 76.8463 3.74903C79.2467 6.1495 80.5953 9.40523 80.5953 12.8V67.2C80.5953 70.5948 79.2467 73.8505 76.8463 76.251C74.4458 78.6514 71.1901 80 67.7953 80H13.3953C10.0005 80 6.74481 78.6514 4.34434 76.251C1.94387 73.8505 0.595306 70.5948 0.595306 67.2V0Z" fill="#663399"/>
<path d="M29.2433 73.5999C24.1049 73.5951 20.9345 70.7015 20.9953 65.3767V51.9055C20.9953 49.2063 21.7857 47.1535 23.3665 45.7487C26.2057 43.0135 32.7929 42.8471 35.5737 45.7903C37.2873 47.3015 37.9337 50.3887 37.7801 53.2695H31.8825C31.9273 52.1375 31.8673 50.4231 31.2017 49.7775C30.3369 48.6071 28.0529 48.7447 27.4489 49.9631C27.0777 50.6239 26.8921 51.6023 26.8921 52.8967V64.5911C26.8921 67.0431 27.7441 68.2831 29.4489 68.3103C30.2457 68.3103 30.8513 68.0207 31.2633 67.4423C31.8385 66.7559 31.9281 65.2359 31.8817 64.1367H37.7793C38.1825 69.7423 34.8745 73.6695 29.2433 73.5999ZM47.9665 73.5999C42.2729 73.6783 39.7257 69.6271 39.8833 64.1367H45.4505C45.2961 66.5303 46.1185 68.7103 48.0897 68.5583C48.9689 68.5583 49.5881 68.2831 49.9457 67.7319C50.6257 66.7247 50.7529 63.8159 49.7809 62.6903C49.1017 61.6063 46.6585 60.6495 45.3681 60.0047C43.5257 59.1231 42.1993 58.0767 41.3881 56.8639C39.5585 54.1727 39.7281 48.2655 42.2953 45.8719C44.7897 42.9183 51.3041 42.7823 53.8009 45.8103C55.3409 47.3711 56.0137 50.4423 55.8833 53.2687H50.5217C50.5673 52.1071 50.4577 50.2327 50.0065 49.5495C49.6905 48.9711 49.0921 48.6815 48.2129 48.6815C46.6457 48.6815 45.8625 49.6183 45.8625 51.4911C45.8793 53.4799 46.6545 54.2959 48.4609 55.1271C50.8001 56.0359 53.7745 57.5879 54.8529 59.4663C58.0689 65.1895 55.8625 73.9319 47.9657 73.5983L47.9665 73.5999ZM65.9473 73.5999C60.2537 73.6783 57.7065 69.6271 57.8641 64.1367H63.4313C63.2769 66.5303 64.0993 68.7103 66.0705 68.5583C66.9497 68.5583 67.5689 68.2831 67.9265 67.7319C68.6065 66.7247 68.7337 63.8159 67.7617 62.6903C67.0825 61.6063 64.6393 60.6495 63.3489 60.0047C61.5065 59.1231 60.1801 58.0767 59.3689 56.8639C57.5393 54.1727 57.7089 48.2655 60.2761 45.8719C62.7705 42.9183 69.2849 42.7823 71.7817 45.8103C73.3217 47.3711 73.9945 50.4423 73.8641 53.2687H68.5025C68.5481 52.1071 68.4385 50.2327 67.9873 49.5495C67.6713 48.9711 67.0729 48.6815 66.1937 48.6815C64.6265 48.6815 63.8433 49.6183 63.8433 51.4911C63.8601 53.4799 64.6353 54.2959 66.4417 55.1271C68.7809 56.0359 71.7553 57.5879 72.8337 59.4663C76.0497 65.1895 73.8433 73.9319 65.9465 73.5983L65.9473 73.5999Z" fill="white"/>
</svg>
