<svg width="66" height="92" viewBox="0 0 66 92" fill="none" xmlns="http://www.w3.org/2000/svg">
<path d="M6.07342 0H10.2062V4.09688H14.0156V0H18.1484V12.3984H14.0156V8.26563H10.2422V12.3984H6.07342M23.6109 4.13281H19.9633V0H31.4094V4.13281H27.7437V12.3984H23.6109M33.2242 0H37.5547L40.214 4.36641L42.8734 0H47.2039V12.3984H43.0711V6.25313L40.1781 10.7094L37.2851 6.25313V12.3984H33.2242M49.2523 0H53.3851V8.30156H59.243V12.3984H49.2523" fill="white"/>
<path d="M5.92969 84.6328L0 18.0765H65.1906L59.2609 84.5968L32.5414 92" fill="#E44D26"/>
<path d="M12.1109 31.6788H32.5953V39.8366H21.0594L21.8141 48.1921H32.5953V56.3319H14.3391M14.6984 60.4288H22.8922L23.4672 66.9515L32.5953 69.3952V77.9124L15.8484 73.2405" fill="white"/>
<path d="M53.0078 31.6788H32.5594V39.8366H52.2531M51.5164 48.1921H32.5594V56.3499H42.6218L41.6695 66.9515L32.5594 69.3952V77.8765L49.2703 73.2405" fill="white"/>
</svg>
