<svg width="180" height="72" viewBox="0 0 180 72" fill="none" xmlns="http://www.w3.org/2000/svg">
<path d="M41.4203 71.6548V53.4305L41.77 53.0853H46.3867L46.7364 53.4305V71.6548L46.3867 72H41.77L41.4203 71.6548Z" fill="#05BDBA"/>
<path d="M41.4203 18.5695V0.345158L41.77 0H46.3867L46.7364 0.345158V18.5695L46.3867 18.9147H41.77L41.4203 18.5695Z" fill="#05BDBA"/>
<path d="M25.5418 58.815H24.9123L21.7646 55.7085V55.0872L27.7102 49.2196H31.0678L31.4875 49.6337V52.9473L25.5418 58.815Z" fill="#05BDBA"/>
<path d="M21.7646 17.0508V16.4295L24.9123 13.3231H25.5418L31.4875 19.1908V22.5043L31.0678 22.9185H27.7102L21.7646 17.0508Z" fill="#05BDBA"/>
<path d="M0.849746 33.3423H26.9408L27.2905 33.6874V38.2435L27.0107 38.6577H0.849746L0.5 38.2435V33.6874L0.849746 33.3423Z" fill="#05BDBA"/>
<path d="M179.15 33.3423L179.5 33.6874V38.2435L179.15 38.5887H152.64L152.29 38.2435L154.178 33.6874L154.528 33.3423H179.15Z" fill="#05BDBA"/>
<path d="M52.7521 45.4918H48.1354L47.7857 45.1467V34.4468C47.7857 32.5829 47.0162 31.0642 44.7079 31.0642C43.5188 31.0642 42.1198 31.0642 40.7208 31.1333L40.5109 31.3404V45.1467L40.1612 45.4918H35.4746L35.1249 45.1467V26.9223L35.4746 26.5772H45.8271C49.8841 26.5772 53.1018 29.8217 53.1018 33.7565V45.1467L52.7521 45.4918Z" fill="white"/>
<path d="M75.0659 37.4842L74.7161 37.8293H62.7548L62.405 38.1745C62.405 38.9338 63.1745 41.2119 66.2523 41.2119C67.3714 41.2119 68.5606 40.8667 68.9103 40.1074L69.2601 39.7622H73.8767L74.2265 40.1074C73.8767 42.3854 71.9181 45.768 66.1823 45.768C59.677 45.768 56.5993 41.2119 56.5993 35.8965C56.5993 30.581 59.677 26.0249 65.8326 26.0249C71.9881 26.0249 75.0659 30.581 75.0659 35.8965V37.4842ZM69.2601 33.7565C69.2601 33.4113 68.9103 30.7191 65.8326 30.7191C62.7548 30.7191 62.405 33.3423 62.405 33.7565L62.7548 34.1016H68.9103L69.2601 33.7565Z" fill="white"/>
<path d="M85.7681 39.7622C85.7681 40.5216 86.1178 40.8667 86.8873 40.8667H90.3148L90.6645 41.2119V45.0086L90.3148 45.3538H86.8873C83.4598 45.3538 80.382 43.8351 80.382 39.6932V31.4784L80.0322 31.1333H77.3742L77.0244 30.7881V26.9223L77.3742 26.5772H80.0322L80.382 26.232V22.8495L80.7317 22.5043H85.3484L85.6981 22.8495V26.232L86.0479 26.5772H90.2448L90.5946 26.9223V30.7191L90.2448 31.0642H86.0479L85.6981 31.4094L85.7681 39.7622Z" fill="white"/>
<path d="M100.038 45.4918H95.4211L95.0713 45.1467V19.3289L95.4211 18.9837H100.038L100.387 19.3289V45.1467L100.038 45.4918Z" fill="white"/>
<path d="M110.39 23.4708H105.774L105.424 23.1256V19.3289L105.774 18.9837H110.39L110.74 19.3289V23.1256L110.39 23.4708ZM110.39 45.4918H105.774L105.424 45.1467V26.9223L105.774 26.5772H110.39L110.74 26.9223V45.1467L110.39 45.4918Z" fill="white"/>
<path d="M128.437 19.3289V23.1256L128.087 23.4708H124.66C123.89 23.4708 123.541 23.8159 123.541 24.5753V26.094L123.89 26.4391H127.738L128.087 26.7843V30.581L127.738 30.9262H123.89L123.541 31.2713V44.9396L123.191 45.2848H118.574L118.225 44.9396V31.4784L117.875 31.1333H115.217L114.867 30.7881V26.9223L115.217 26.5772H117.875L118.225 26.232V24.7133C118.225 20.5714 121.302 19.0527 124.73 19.0527H128.157L128.437 19.3289Z" fill="white"/>
<path d="M142.637 45.837C141.098 49.6337 139.559 51.9118 134.173 51.9118H132.284L131.935 51.5666V47.7699L132.284 47.4247H134.173C136.062 47.4247 136.481 47.0796 136.831 45.906V45.5609L130.675 30.7881V26.9223L131.025 26.5772H134.453L134.802 26.9223L139.419 39.8313H139.769L144.595 26.9223L144.945 26.5772H148.373L148.792 26.9223V30.7191L142.637 45.837Z" fill="white"/>
</svg>
